<?xml version="1.0" encoding="UTF-8"?>
<!DOCTYPE svg PUBLIC "-//W3C//DTD SVG 1.1//EN" "http://www.w3.org/Graphics/SVG/1.1/DTD/svg11.dtd">
<svg xmlns="http://www.w3.org/2000/svg" version="1.1" width="1080px" height="1080px" style="shape-rendering:geometricPrecision; text-rendering:geometricPrecision; image-rendering:optimizeQuality; fill-rule:evenodd; clip-rule:evenodd" xmlns:xlink="http://www.w3.org/1999/xlink">
<g><path style="opacity:0.986" fill="#fcb813" d="M 506.5,-0.5 C 528.5,-0.5 550.5,-0.5 572.5,-0.5C 740.765,13.6947 875.598,87.6947 977,221.5C 1037.64,306.82 1071.81,401.82 1079.5,506.5C 1079.5,528.5 1079.5,550.5 1079.5,572.5C 1065.31,740.765 991.305,875.598 857.5,977C 772.18,1037.64 677.18,1071.81 572.5,1079.5C 550.5,1079.5 528.5,1079.5 506.5,1079.5C 338.235,1065.31 203.402,991.305 102,857.5C 41.3589,772.18 7.19218,677.18 -0.5,572.5C -0.5,550.5 -0.5,528.5 -0.5,506.5C 13.6947,338.235 87.6947,203.402 221.5,102C 306.82,41.3589 401.82,7.19218 506.5,-0.5 Z"/></g>
<g><path style="opacity:1" fill="#231f20" d="M 512.5,41.5 C 650.149,37.3164 770.482,80.1497 873.5,170C 998.617,288.64 1051.78,434.14 1033,606.5C 1007.29,767.077 925.122,888.91 786.5,972C 659.415,1041.71 526.415,1055.71 387.5,1014C 241.906,963.736 138.739,867.902 78,726.5C 27.1171,595.145 29.4505,464.811 85,335.5C 153.011,192.836 263.178,100.002 415.5,57C 447.563,49.2821 479.896,44.1155 512.5,41.5 Z"/></g>
<g><path style="opacity:1" fill="#fcb813" d="M 651.5,342.5 C 650.224,343.386 650.224,344.386 651.5,345.5C 652.107,345.376 652.44,345.043 652.5,344.5C 668.624,331.933 684.958,319.599 701.5,307.5C 708.891,327.34 715.891,347.34 722.5,367.5C 723.167,367.833 723.833,368.167 724.5,368.5C 730.641,366.731 736.807,365.064 743,363.5C 744.711,363.439 746.044,364.106 747,365.5C 763.415,393.333 780.082,420.999 797,448.5C 819.5,464.333 842,480.167 864.5,496C 874.058,499.305 883.725,502.138 893.5,504.5C 887.236,519.526 880.57,534.36 873.5,549C 852.174,553.663 830.84,558.33 809.5,563C 807.167,563.667 804.833,563.667 802.5,563C 775.205,552.735 747.872,542.568 720.5,532.5C 716.007,534.579 711.674,536.912 707.5,539.5C 733.261,556.797 758.761,574.463 784,592.5C 793.707,610.081 803.54,627.581 813.5,645C 792.838,655.22 772.004,665.053 751,674.5C 742.13,657.928 733.63,641.094 725.5,624C 683.254,613.53 640.921,603.364 598.5,593.5C 556.838,613.997 515.172,634.497 473.5,655C 433.64,669.398 393.64,683.398 353.5,697C 322.5,726 291.5,755 260.5,784C 239.492,784.833 218.492,784.666 197.5,783.5C 220.415,744.002 243.581,704.669 267,665.5C 267.097,639.82 266.431,614.153 265,588.5C 256.5,580 248,571.5 239.5,563C 223.57,566.524 207.737,570.69 192,575.5C 189.539,569.951 187.372,564.284 185.5,558.5C 197.231,551.214 209.398,544.548 222,538.5C 228.606,522.99 235.772,507.823 243.5,493C 271.223,476.147 298.223,458.314 324.5,439.5C 319.132,438.293 313.798,436.96 308.5,435.5C 344.227,423.758 379.894,411.924 415.5,400C 399.128,395.824 382.795,391.49 366.5,387C 399.169,379.666 431.836,372.333 464.5,365C 447.936,356.218 431.269,347.718 414.5,339.5C 424.167,338.833 433.833,338.167 443.5,337.5C 459.5,337.5 475.5,337.5 491.5,337.5C 502.853,337.832 514.186,337.499 525.5,336.5C 525.376,335.893 525.043,335.56 524.5,335.5C 511.178,326.835 498.178,317.668 485.5,308C 521.061,311.382 556.561,315.549 592,320.5C 592.5,320.333 593,320.167 593.5,320C 583.833,311.667 574.167,303.333 564.5,295C 565.5,294.833 566.5,294.667 567.5,294.5C 597.132,300.161 626.799,305.494 656.5,310.5C 655.021,321.182 653.355,331.849 651.5,342.5 Z"/></g>
<g><path style="opacity:1" fill="#674f1c" d="M 524.5,335.5 C 525.043,335.56 525.376,335.893 525.5,336.5C 514.186,337.499 502.853,337.832 491.5,337.5C 502.5,336.833 513.5,336.167 524.5,335.5 Z"/></g>
<g><path style="opacity:1" fill="#85641a" d="M 443.5,337.5 C 433.833,338.167 424.167,338.833 414.5,339.5C 413.957,339.44 413.624,339.107 413.5,338.5C 423.478,337.501 433.478,337.168 443.5,337.5 Z"/></g>
<g><path style="opacity:1" fill="#80601b" d="M 651.5,342.5 C 651.328,343.492 651.662,344.158 652.5,344.5C 652.44,345.043 652.107,345.376 651.5,345.5C 650.224,344.386 650.224,343.386 651.5,342.5 Z"/></g>
<g><path style="opacity:1" fill="#292320" d="M 758.5,429.5 C 760.124,429.36 761.29,430.027 762,431.5C 765.297,439.063 767.964,446.73 770,454.5C 758.212,448.689 746.379,443.022 734.5,437.5C 742.646,434.95 750.646,432.284 758.5,429.5 Z"/></g>
<g><path style="opacity:1" fill="#fab713" d="M 593.5,612.5 C 632.062,622.15 670.395,632.816 708.5,644.5C 715.542,656.913 721.708,669.58 727,682.5C 709.61,691.277 692.11,699.444 674.5,707C 666.752,693.501 658.752,680.168 650.5,667C 622.381,654.441 594.381,641.607 566.5,628.5C 575.539,623.104 584.539,617.771 593.5,612.5 Z"/></g>
<g><path style="opacity:1" fill="#fab713" d="M 327.5,784.5 C 315.5,783.833 303.5,783.167 291.5,782.5C 313.662,761.172 335.995,740.006 358.5,719C 390.683,706.495 422.85,693.995 455,681.5C 455.667,682.167 455.667,682.833 455,683.5C 428.471,716.728 402.305,750.228 376.5,784C 360.17,784.5 343.837,784.667 327.5,784.5 Z"/></g>
<g><path style="opacity:1" fill="#83631a" d="M 291.5,782.5 C 303.5,783.167 315.5,783.833 327.5,784.5C 315.149,784.832 302.815,784.499 290.5,783.5C 290.624,782.893 290.957,782.56 291.5,782.5 Z"/></g>
</svg>
